HIERARCHY
ROOT Hips
{
	OFFSET 0.000000 0.000000 0.000000
	CHANNELS 6 Xposition Yposition Zposition Xrotation Yrotation Zrotation
	JOINT LeftUpLeg_virtual
	{
		OFFSET 0.000000 0.000000 0.000000
		CHANNELS 3 Xrotation Yrotation Zrotation
		JOINT LeftUpLeg
		{
			OFFSET 13.026900 -6.336304 -1.092800
			CHANNELS 3 Xrotation Yrotation Zrotation
			JOINT LeftLeg
			{
				OFFSET 0.524474 -46.096886 9.782700
				CHANNELS 3 Xrotation Yrotation Zrotation
				JOINT LeftFoot
				{
					OFFSET -0.524474 -53.427422 -12.948200
					CHANNELS 3 Xrotation Yrotation Zrotation
					JOINT LeftToeBase
					{
						OFFSET 0.192200 -14.009700 16.364100
						CHANNELS 3 Xrotation Yrotation Zrotation
						JOINT LeftToe_End
						{
							OFFSET -1.784700 -0.561700 9.474800
							CHANNELS 3 Xrotation Yrotation Zrotation
							End Site
							{
								OFFSET 0 0 0
							}
						}
					}
				}
			}
		}
	}
	JOINT RightUpLeg_virtual
	{
		OFFSET 0.000000 0.000000 0.000000
		CHANNELS 3 Xrotation Yrotation Zrotation
		JOINT RightUpLeg
		{
			OFFSET -12.883000 -6.336304 -1.092800
			CHANNELS 3 Xrotation Yrotation Zrotation
			JOINT RightLeg
			{
				OFFSET -0.524587 -46.096825 9.782800
				CHANNELS 3 Xrotation Yrotation Zrotation
				JOINT RightFoot
				{
					OFFSET 0.524587 -53.427383 -12.948300
					CHANNELS 3 Xrotation Yrotation Zrotation
					JOINT RightToeBase
					{
						OFFSET -0.192200 -14.009700 16.364100
						CHANNELS 3 Xrotation Yrotation Zrotation
						JOINT RightToe_End
						{
							OFFSET 1.784700 -0.561700 9.474800
							CHANNELS 3 Xrotation Yrotation Zrotation
							End Site
							{
								OFFSET 0 0 0
							}
						}
					}
				}
			}
		}
	}
	JOINT Spine_virtual
	{
		OFFSET 0.000000 0.000000 0.000000
		CHANNELS 3 Xrotation Yrotation Zrotation
		JOINT Spine
		{
			OFFSET 0.072000 7.257294 -0.789700
			CHANNELS 3 Xrotation Yrotation Zrotation
			JOINT Spine1
			{
				OFFSET 0.000000 12.508769 -0.658067
				CHANNELS 3 Xrotation Yrotation Zrotation
				JOINT Spine1_split
				{
					OFFSET 0.000000 12.508769 -0.658067
					CHANNELS 3 Xrotation Yrotation Zrotation
					JOINT Spine2
					{
						OFFSET 0.000000 12.508769 -0.658067
						CHANNELS 3 Xrotation Yrotation Zrotation
						JOINT Neck_virtual
						{
							OFFSET 0.000000 0.000000 0.000000
							CHANNELS 3 Xrotation Yrotation Zrotation
							JOINT Neck
							{
								OFFSET 0.000000 14.033295 7.520400
								CHANNELS 3 Xrotation Yrotation Zrotation
								JOINT Head
								{
									OFFSET 0.000000 8.198502 5.703100
									CHANNELS 3 Xrotation Yrotation Zrotation
									JOINT HeadTop_End
									{
										OFFSET 0.000000 17.760803 13.332701
										CHANNELS 3 Xrotation Yrotation Zrotation
										End Site
										{
											OFFSET 0 0 0
										}
									}
								}
							}
						}
						JOINT LeftShoulder_virtual
						{
							OFFSET 0.000000 0.000000 0.000000
							CHANNELS 3 Xrotation Yrotation Zrotation
							JOINT LeftShoulder
							{
								OFFSET 6.292450 5.785301 -0.669000
								CHANNELS 3 Xrotation Yrotation Zrotation
								JOINT LeftShoulder_split
								{
									OFFSET 6.292450 5.785301 -0.669000
									CHANNELS 3 Xrotation Yrotation Zrotation
									JOINT LeftArm
									{
										OFFSET 13.907140 -6.093903 1.965100
										CHANNELS 3 Xrotation Yrotation Zrotation
										JOINT LeftForeArm
										{
											OFFSET 34.140198 0.000000 0.000000
											CHANNELS 3 Xrotation Yrotation Zrotation
											JOINT LeftHand
											{
												OFFSET 40.960209 0.000000 0.000000
												CHANNELS 3 Xrotation Yrotation Zrotation
												End Site
												{
													OFFSET 0 0 0
												}
											}
										}
									}
								}
							}
						}
						JOINT RightShoulder_virtual
						{
							OFFSET 0.000000 0.000000 0.000000
							CHANNELS 3 Xrotation Yrotation Zrotation
							JOINT RightShoulder
							{
								OFFSET -6.292450 5.785301 -0.669000
								CHANNELS 3 Xrotation Yrotation Zrotation
								JOINT RightShoulder_split
								{
									OFFSET -6.292450 5.785301 -0.669000
									CHANNELS 3 Xrotation Yrotation Zrotation
									JOINT RightArm
									{
										OFFSET -13.907140 -6.093903 1.965100
										CHANNELS 3 Xrotation Yrotation Zrotation
										JOINT RightForeArm
										{
											OFFSET -34.140198 0.000000 0.000000
											CHANNELS 3 Xrotation Yrotation Zrotation
											JOINT RightHand
											{
												OFFSET -40.960209 0.000000 0.000000
												CHANNELS 3 Xrotation Yrotation Zrotation
												End Site
												{
													OFFSET 0 0 0
												}
											}
										}
									}
								}
							}
						}
					}
				}
			}
		}
	}
}
MOTION
Frames: 4
Frame Time: 0.03333333
2.986202 110.411911 8.539879 0.000000 0.000000 0.000000 -29.541244 -42.210320 -19.194443 -1.136851 10.950490 3.990275 31.046287 1.345144 -3.632465 -11.512190 6.184536 2.101325 -4.339299 0.259564 -0.299809 0.000000 0.000000 0.000000 -27.536007 -40.383295 -18.229946 13.251889 -9.555474 -7.594567 19.866937 7.836297 -2.707959 -12.496436 -14.520176 8.427042 -4.627227 0.152906 0.379773 0.000000 0.000000 0.000000 -28.958735 -41.389430 -19.486875 11.172292 -4.493001 0.554321 3.120017 -1.373038 0.011125 0.614483 1.157678 0.078453 0.000000 0.000000 0.000000 3.622192 -2.150016 -0.034372 1.825169 1.878103 -3.287541 -6.693388 -1.331360 4.232000 0.000000 0.000000 0.000000 3.515804 -2.495805 0.169236 0.943649 -15.295106 -10.999841 0.700255 -1.499847 -0.522004 -21.081977 0.343786 -38.883977 2.225521 -67.570699 2.048216 0.000000 0.000000 0.000000 2.519617 -2.503414 0.074854 -0.023840 11.374490 16.063548 1.474583 3.416364 -2.053666 -10.201116 -7.285288 62.244053 -0.254201 42.074119 1.245392 0.000000 0.000000 0.000000 
3.820496 110.261284 9.733955 0.000000 0.000000 0.000000 -30.589272 -44.645501 -20.875544 0.155665 12.665782 4.423697 29.410081 1.455107 -5.292158 -12.137745 7.906534 5.333060 -4.356117 0.146922 -0.049725 0.000000 0.000000 0.000000 -28.284375 -41.907759 -19.461531 12.478419 -9.874246 -8.195491 20.045669 8.186731 -3.573115 -11.266895 -14.251691 9.237642 -4.406339 0.178905 0.111971 0.000000 0.000000 0.000000 -30.032103 -43.072771 -20.865770 11.235035 -4.486553 0.408680 3.154548 -1.340855 -0.025594 0.535156 1.054981 0.064145 0.000000 0.000000 0.000000 3.557395 -2.117755 -0.036655 1.920229 1.847133 -3.292223 -6.526307 -1.098422 3.978184 0.000000 0.000000 0.000000 3.543480 -2.447228 0.164276 0.993052 -15.392316 -10.961430 0.621540 -1.528873 -0.510564 -20.885798 0.344260 -38.862144 2.221842 -67.684880 2.030883 0.000000 0.000000 0.000000 2.620882 -2.432350 0.067013 0.020430 11.307230 16.044468 1.414037 3.490384 -1.965448 -10.175992 -7.344648 62.389243 -0.200690 41.979227 1.213767 0.000000 0.000000 0.000000 
4.589762 110.116966 10.913601 0.000000 0.000000 0.000000 -31.928798 -46.943351 -22.717395 1.216640 13.776186 4.642352 28.182996 1.514736 -6.657394 -12.963496 9.664680 7.893317 -4.170883 0.059824 0.045346 0.000000 0.000000 0.000000 -29.095527 -43.362648 -20.692929 11.619257 -9.906192 -8.680680 20.410436 7.951524 -4.403958 -10.077130 -14.327382 9.404075 -4.153950 0.225176 0.032462 0.000000 0.000000 0.000000 -31.244366 -44.639115 -22.378947 11.236843 -4.425692 0.220919 3.196598 -1.302989 -0.034081 0.503797 0.948172 0.096488 0.000000 0.000000 0.000000 3.529238 -2.093771 -0.025747 2.054152 1.791724 -3.298014 -6.371685 -0.991486 3.795084 0.000000 0.000000 0.000000 3.623705 -2.411365 0.175353 1.067147 -15.437315 -10.829574 0.504033 -1.614616 -0.583025 -20.712948 0.313764 -38.910269 2.228857 -67.748933 2.040977 0.000000 0.000000 0.000000 2.768998 -2.371021 0.085950 0.051597 11.267069 16.033753 1.426509 3.557456 -1.867380 -10.077557 -7.420052 62.399037 -0.155417 42.158748 1.178814 0.000000 0.000000 0.000000 
5.256691 110.083786 12.036934 0.000000 0.000000 0.000000 -33.351650 -48.762879 -24.530841 1.952029 14.267804 4.660847 27.326979 1.514080 -7.626950 -13.737822 11.349042 9.643162 -3.746916 0.029409 -0.046344 0.000000 0.000000 0.000000 -30.074764 -44.897729 -22.051460 10.726853 -9.595045 -8.892131 20.945359 7.125171 -5.151251 -8.910025 -14.670095 9.021441 -4.181575 0.273411 0.145652 0.000000 0.000000 0.000000 -32.602340 -46.131989 -24.024265 11.169539 -4.322930 0.035162 3.249977 -1.286361 -0.009224 0.573125 0.799913 0.241685 0.000000 0.000000 0.000000 3.556613 -2.084871 0.008159 2.155640 1.712456 -3.281295 -6.346351 -1.014903 3.693407 0.000000 0.000000 0.000000 3.738598 -2.400097 0.201655 1.146451 -15.435314 -10.643273 0.407080 -1.716567 -0.724168 -20.669838 0.307301 -39.013101 2.279101 -67.827829 2.118368 0.000000 0.000000 0.000000 2.920211 -2.338851 0.125222 0.059367 11.253519 16.061461 1.499972 3.645852 -1.774781 -9.956467 -7.509133 62.239054 -0.138712 42.498899 1.153216 0.000000 0.000000 0.000000 
